# xmcd
#
# Track frame offsets:
#    150
#    21572
#    39001
#    52091
#    71915
#    88765
#    103557
#    126016
#    141803
#    162193
#
# Disc length: 2468 seconds
#
# Revision: 2
# Processed by: cddbd v1.5.1PL2 Copyright (c) Steve Scherf et al.
# Submitted via: audiograbber 1.83.01
#
DISCID=8809a20a
DTITLE=Vaughan Brothers - Family Style
DYEAR=1990
DGENRE=Rock
TTITLE0=Hard to Be
TTITLE1=White Boots
TTITLE2=D/FW
TTITLE3=Good Texan
TTITLE4=Hillbillies from Outerspace
TTITLE5=Long Way from Home
TTITLE6=Tick Tock
TTITLE7=Telephone Song
TTITLE8=Baboom/Mama Said
TTITLE9=Brothers
EXTD=
EXTT0=
EXTT1=
EXTT2=
EXTT3=
EXTT4=
EXTT5=
EXTT6=
EXTT7=
EXTT8=
EXTT9=
PLAYORDER=
